<svg xmlns="http://www.w3.org/2000/svg" width="40" height="40" viewBox="0 0 40 40">
    <g fill="none" fill-rule="evenodd">
        <g>
            <g>
                <path d="M0 0H40V40H0z" transform="translate(-280.000000, -415.000000) translate(280.000000, 415.000000)"/>
                <g transform="translate(-280.000000, -415.000000) translate(280.000000, 415.000000) translate(0.000000, 5.000000)">
                    <rect width="40" height="30" fill="#006E95" rx="2"/>
                    <g fill="#FFF">
                        <path d="M35.97 10.127c0 .902-.57 1.322-1.589 1.322h-1.948v-.901h1.948c.18 0 .33-.03.39-.09s.12-.15.12-.271c0-.12-.06-.24-.12-.3s-.18-.09-.36-.09c-.929-.03-2.098.03-2.098-1.293 0-.6.39-1.262 1.439-1.262h2.008v.902h-1.858c-.18 0-.3 0-.39.06-.09.09-.15.18-.15.33 0 .15.09.24.21.3.12.03.24.061.39.061h.54c.569 0 .928.12 1.168.33.18.21.3.481.3.902zm-4.226-.901c-.24-.21-.6-.33-1.17-.33h-.539c-.15 0-.27-.031-.39-.061-.12-.06-.21-.15-.21-.3 0-.151.03-.24.15-.331.09-.06.21-.06.39-.06h1.858v-.902h-2.008c-1.079 0-1.439.661-1.439 1.262 0 1.323 1.17 1.262 2.099 1.292.18 0 .3.03.36.09s.12.181.12.301-.06.21-.12.27c-.09.06-.21.09-.39.09h-1.949v.902h1.949c1.019 0 1.588-.42 1.588-1.322 0-.42-.12-.691-.3-.901zm-3.837 1.352h-2.368v-.842h2.308v-.84h-2.308v-.782h2.368v-.872H24.55v4.207h3.357v-.871zM23.47 7.453c-.33-.18-.719-.21-1.229-.21h-2.308v4.206h1.02V9.917h1.079c.36 0 .57.03.719.18.18.21.18.571.18.841v.511h.989v-.811c0-.39-.03-.571-.15-.781-.09-.12-.27-.271-.51-.36.27-.091.72-.452.72-1.113 0-.48-.18-.751-.51-.931zm-5.695-.21h-3.207l-1.289 1.382-1.229-1.383H8.003v4.207h3.987l1.289-1.382 1.229 1.382h1.948v-1.412h1.26c.869 0 1.738-.24 1.738-1.412 0-1.142-.9-1.383-1.679-1.383zm4.886 1.742c-.15.06-.3.06-.48.06l-1.228.03v-.961h1.229c.18 0 .36 0 .48.09.119.06.209.18.209.36s-.09.331-.21.421zm-4.886.21h-1.319V8.114h1.32c.359 0 .599.15.599.51 0 .361-.24.571-.6.571zm-3.867.15l1.56-1.652v3.396l-1.56-1.743zm-2.428 1.233H8.993v-.842h2.218v-.84H8.993v-.782h2.517l1.11 1.232-1.14 1.232zm21.702-6.371h-1.438l-1.889-3.155v3.155h-2.038l-.39-.931H25.33l-.39.931H23.77c-.48 0-1.109-.12-1.469-.48-.33-.361-.51-.842-.51-1.593 0-.631.09-1.202.54-1.653.3-.33.84-.481 1.53-.481h.958v.902h-.959c-.36 0-.57.06-.78.24-.179.18-.269.51-.269.962 0 .45.09.781.27.991.15.15.42.21.69.21h.449L25.659 0h1.498l1.679 3.967V0h1.559l1.768 2.915V0h1.02v4.207zm-12.919 0h1.02V0h-1.02v4.207zM19.154.18c-.33-.18-.69-.18-1.199-.18h-2.308v4.207h.99V2.675h1.078c.36 0 .6.03.75.18.18.21.15.57.15.811v.541h1.019v-.841c0-.36-.03-.541-.18-.752-.09-.12-.27-.27-.48-.36.27-.12.72-.451.72-1.112 0-.48-.21-.751-.54-.962zm-4.226 3.156H12.59v-.842h2.308v-.871H12.59V.872h2.338V0H11.57v4.207h3.358v-.871zM10.82 0H9.172L7.943 2.855 6.624 0H5.006v3.967L3.297 0H1.8L0 4.207h1.08l.389-.931h2.098l.39.931h2.038V.902l1.469 3.305h.869L9.802.902v3.305h1.019V0zm16.246 2.374L26.378.721l-.69 1.653h1.38zm-8.692-.661c-.15.09-.3.09-.51.09h-1.229V.872h1.23c.179 0 .389 0 .509.06.12.09.18.21.18.39 0 .18-.06.33-.18.39zm-16.547.661l.69-1.653.69 1.653h-1.38z" transform="translate(2.029986, 9.191846)"/>
                    </g>
                </g>
            </g>
        </g>
    </g>
</svg>
