<svg xmlns="http://www.w3.org/2000/svg" xmlns:xlink="http://www.w3.org/1999/xlink" width="40" height="40" viewBox="0 0 40 40">
    <defs>
        <rect id="630zs7wfea" width="40" height="30" x="0" y="0" rx="2.667"/>
    </defs>
    <g fill="none" fill-rule="evenodd">
        <g>
            <g>
                <path d="M0 0H40V40H0z" transform="translate(-600.000000, -415.000000) translate(600.000000, 415.000000)"/>
                <g>
                    <g fill="#F3F2F2" fill-rule="nonzero" transform="translate(-600.000000, -415.000000) translate(600.000000, 415.000000) translate(0.000000, 5.000000)">
                        <rect width="40" height="30" rx="2.667"/>
                    </g>
                    <g transform="translate(-600.000000, -415.000000) translate(600.000000, 415.000000) translate(0.000000, 5.000000)">
                        <mask id="osneal6mob" fill="#fff">
                            <use xlink:href="#630zs7wfea"/>
                        </mask>
                        <g mask="url(#osneal6mob)">
                            <g transform="translate(3.394756, 9.340565)">
                                <ellipse cx="17.658" cy="2.819" fill="#F26E21" rx="2.772" ry="2.819"/>
                                <path fill="#000" d="M7.548 10.473L7.548 7.463 9.569 9.613 9.569 7.654 9.988 7.654 9.988 10.644 7.967 8.499 7.967 10.472 7.548 10.472zM12.181 8.054L11.07 8.054 11.07 8.731 12.149 8.731 12.149 9.131 11.07 9.131 11.07 10.073 12.181 10.073 12.181 10.473 10.652 10.473 10.652 7.654 12.181 7.654zM13.495 8.054L13.495 10.472 13.077 10.472 13.077 8.054 12.44 8.054 12.44 7.654 14.131 7.654 14.131 8.054zM14.805 7.654L15.527 9.538 16.281 7.517 17.003 9.538 17.769 7.654 18.223 7.654 16.985 10.652 16.272 8.655 15.529 10.654 14.351 7.655z"/>
                                <path fill="#000" fill-rule="nonzero" d="M18.304 9.05c0-.396.143-.737.429-1.021.284-.285.627-.427 1.027-.427.395 0 .733.143 1.016.43.283.288.425.632.425 1.035 0 .405-.143.75-.427 1.032-.286.283-.631.425-1.036.425-.357 0-.68-.126-.964-.378-.313-.279-.47-.644-.47-1.095zm.422.005c0 .312.103.567.308.768.205.201.441.301.71.301.29 0 .536-.102.735-.306.2-.207.3-.458.3-.755 0-.3-.099-.552-.296-.755-.197-.204-.44-.306-.729-.306-.288 0-.532.102-.73.306-.199.201-.298.45-.298.747zM22.665 9.272l.859 1.2h-.512L22.22 9.32h-.075v1.154h-.418V7.654h.49c.366 0 .63.07.793.21.18.156.27.362.27.617 0 .2-.057.372-.17.515-.112.143-.26.236-.445.276zm-.52-.324h.133c.396 0 .594-.154.594-.461 0-.289-.193-.433-.578-.433h-.149v.894z"/>
                                <path fill="#000" d="M24.358 8.779L25.437 7.654 25.995 7.654 24.742 8.931 26.003 10.473 25.443 10.473 24.445 9.219 24.358 9.307 24.358 10.473 23.94 10.473 23.94 7.654 24.358 7.654 24.358 8.779z"/>
                                <g fill="#0B161F" fill-rule="nonzero">
                                    <path d="M2.73 4.14c-.326.297-.748.426-1.417.426h-.278V1.027h.278c.67 0 1.074.12 1.417.433.358.321.572.818.572 1.332 0 .513-.214 1.028-.572 1.348zM1.52.12H0v5.35h1.513c.803 0 1.383-.191 1.893-.617.604-.506.962-1.268.962-2.055 0-1.58-1.17-2.678-2.847-2.678zM4.845 5.471L5.879 5.471 5.879.121 4.845.121 4.845 5.471M8.41 2.173c-.622-.232-.804-.385-.804-.672 0-.338.325-.594.771-.594.31 0 .565.128.836.432l.54-.713C9.308.232 8.775.032 8.194.032 7.256.032 6.54.69 6.54 1.563c0 .74.333 1.116 1.304 1.47.406.144.612.24.716.305.207.136.31.328.31.553 0 .434-.341.754-.804.754-.493 0-.89-.248-1.129-.714l-.667.65c.476.706 1.049 1.02 1.837 1.02 1.074 0 1.829-.723 1.829-1.758 0-.85-.349-1.236-1.526-1.67M10.262 2.799c0 1.574 1.226 2.793 2.8 2.793.447 0 .828-.089 1.298-.312V4.05c-.414.418-.78.586-1.25.586-1.042 0-1.782-.762-1.782-1.846 0-1.026.764-1.837 1.735-1.837.492 0 .867.176 1.297.602V.328C13.907.096 13.532 0 13.086 0c-1.566 0-2.824 1.244-2.824 2.799M22.744 3.715L21.327.121 20.198.121 22.45 5.608 23.006 5.608 25.298.121 24.176.121 22.744 3.715M25.768 5.471L28.702 5.471 28.702 4.566 26.802 4.566 26.802 3.12 28.63 3.12 28.63 2.215 26.802 2.215 26.802 1.027 28.702 1.027 28.702.121 25.768.121 25.768 5.471M30.722 2.584h-.301V.962h.317c.646 0 .996.274.996.795 0 .537-.35.827-1.012.827zm2.076-.884c0-1.002-.683-1.579-1.877-1.579h-1.535v5.35h1.034v-2.15h.136l1.43 2.15h1.274l-1.671-2.254c.78-.16 1.209-.698 1.209-1.517z" transform="translate(0.000000, 0.028475)"/>
                                </g>
                            </g>
                        </g>
                    </g>
                </g>
            </g>
        </g>
    </g>
</svg>
