<svg xmlns="http://www.w3.org/2000/svg" xmlns:xlink="http://www.w3.org/1999/xlink" width="40" height="40" viewBox="0 0 40 40">
    <defs>
        <rect id="bpyhj2yb0a" width="40" height="30" x="0" y="0" rx="2.667"/>
    </defs>
    <g fill="none" fill-rule="evenodd">
        <g>
            <g>
                <path d="M0 0H40V40H0z" transform="translate(-201.000000, -415.000000) translate(201.000000, 415.000000)"/>
                <g>
                    <g fill="#000" fill-rule="nonzero" transform="translate(-201.000000, -415.000000) translate(201.000000, 415.000000) translate(0.000000, 5.000000)">
                        <rect width="40" height="30" rx="2.667"/>
                    </g>
                    <g transform="translate(-201.000000, -415.000000) translate(201.000000, 415.000000) translate(0.000000, 5.000000)">
                        <mask id="azj4zu29nb" fill="#fff">
                            <use xlink:href="#bpyhj2yb0a"/>
                        </mask>
                        <g mask="url(#azj4zu29nb)">
                            <g fill-rule="nonzero">
                                <path fill="#F9C623" d="M9.03 4.859c.651-.216 1.347-.331 2.071-.331 3.159 0 5.796 2.222 6.4 5.177l4.477-.904C20.951 3.779 16.472 0 11.101 0c-1.23 0-2.413.199-3.52.565l1.45 4.294" transform="translate(9.000000, 4.004653)"/>
                                <path fill="#009ACB" d="M3.746 19.237l3.028-3.392c-1.352-1.187-2.204-2.918-2.204-4.847 0-1.928.851-3.659 2.202-4.844L3.744 2.762C1.448 4.777 0 7.72 0 10.998c0 3.28 1.45 6.224 3.746 8.239" transform="translate(9.000000, 4.004653)"/>
                                <path fill="#DC3E2A" d="M17.5 12.296c-.607 2.953-3.242 5.172-6.399 5.172-.725 0-1.422-.115-2.073-.332l-1.45 4.295c1.106.366 2.29.564 3.523.564 5.366 0 9.844-3.772 10.875-8.79l-4.477-.909" transform="translate(9.000000, 4.004653)"/>
                            </g>
                        </g>
                    </g>
                </g>
            </g>
        </g>
    </g>
</svg>
