<svg xmlns="http://www.w3.org/2000/svg" xmlns:xlink="http://www.w3.org/1999/xlink" width="40" height="40" xmlns:v="https://vecta.io/nano"><defs><rect id="A" width="40" height="30" rx="2.667"/></defs><g fill="none" fill-rule="evenodd"><rect width="40" height="30" rx="2.667" fill="#00529e" fill-rule="nonzero" y="5"/><g transform="translate(0 5)"><mask id="B" fill="#fff"><use xlink:href="#A"/></mask><g mask="url(#B)"><path fill="#fff" d="M22.217 24.623c5.625.027 10.759-4.448 10.759-9.892 0-5.951-5.136-10.066-10.759-10.064h-4.84C11.686 4.665 7 8.781 7 14.731c0 5.445 4.686 9.919 10.377 9.892h4.84z"/><path fill="#00529e" fill-rule="nonzero" d="M19.6 20.077V9.267c2.24.833 3.83 2.937 3.833 5.404-.004 2.467-1.594 4.57-3.833 5.404m-8.105-5.404c.004-2.466 1.592-4.568 3.83-5.404v10.807c-2.238-.835-3.826-2.937-3.83-5.403m5.968-9.134c-5.2 0-9.416 4.09-9.417 9.135s4.216 9.132 9.417 9.134 9.418-4.09 9.418-9.134-4.216-9.134-9.418-9.135"/></g></g></g></svg>