<svg xmlns="http://www.w3.org/2000/svg" xmlns:xlink="http://www.w3.org/1999/xlink" width="40" height="40" xmlns:v="https://vecta.io/nano"><defs><rect id="A" width="40" height="30" rx="2.667"/></defs><g fill="none" fill-rule="evenodd"><rect width="40" height="30" rx="2.667" fill="#f3f2f2" fill-rule="nonzero" y="5"/><g transform="translate(0 5)"><mask id="B" fill="#fff"><use xlink:href="#A"/></mask><g mask="url(#B)"><g transform="translate(3.395 9.341)"><ellipse cx="17.658" cy="2.819" fill="#f26e21" rx="2.772" ry="2.819"/><g fill="#000"><path d="M7.548 10.473v-3.01l2.021 2.15V7.654h.419v2.99L7.967 8.499v1.973h-.419zm4.633-2.419H11.07v.677h1.079v.4H11.07v.942h1.111v.4h-1.529V7.654h1.529zm1.314 0v2.418h-.418V8.054h-.637v-.4h1.691v.4zm1.31-.4l.722 1.884.754-2.021.722 2.021.766-1.884h.454l-1.238 2.998-.713-1.997-.743 1.999-1.178-2.999z"/><path fill-rule="nonzero" d="M18.304 9.05a1.39 1.39 0 0 1 .429-1.021c.284-.285.627-.427 1.027-.427.395 0 .733.143 1.016.43s.425.632.425 1.035a1.4 1.4 0 0 1-.427 1.032 1.42 1.42 0 0 1-1.036.425c-.357 0-.68-.126-.964-.378-.313-.279-.47-.644-.47-1.095zm.422.005c0 .312.103.567.308.768s.441.301.71.301c.29 0 .536-.102.735-.306s.3-.458.3-.755-.099-.552-.296-.755-.44-.306-.729-.306a.98.98 0 0 0-.73.306 1.02 1.02 0 0 0-.298.747zm3.939.217l.859 1.2h-.512L22.22 9.32h-.075v1.154h-.418v-2.82h.49c.366 0 .63.07.793.21.18.156.27.362.27.617 0 .2-.057.372-.17.515a.75.75 0 0 1-.445.276zm-.52-.324h.133c.396 0 .594-.154.594-.461 0-.289-.193-.433-.578-.433h-.149v.894z"/><path d="M24.358 8.779l1.079-1.125h.558l-1.253 1.277 1.261 1.542h-.56l-.998-1.254-.087.088v1.166h-.418V7.654h.418v1.125z"/></g><g fill="#0b161f" fill-rule="nonzero"><path d="M2.73 4.168c-.326.297-.748.426-1.417.426h-.278V1.055h.278c.67 0 1.074.12 1.417.433.358.321.572.818.572 1.332s-.214 1.028-.572 1.348zM1.52.148H0v5.35h1.513c.803 0 1.383-.191 1.893-.617a2.7 2.7 0 0 0 .962-2.055c0-1.58-1.17-2.678-2.847-2.678zm3.325 5.351h1.034V.149H4.845v5.35M8.41 2.201c-.622-.232-.804-.385-.804-.672 0-.338.325-.594.771-.594.31 0 .565.128.836.432l.54-.713C9.308.26 8.775.06 8.194.06 7.256.06 6.54.718 6.54 1.591c0 .74.333 1.116 1.304 1.47.406.144.612.24.716.305a.64.64 0 0 1 .31.553c0 .434-.341.754-.804.754a1.22 1.22 0 0 1-1.129-.714l-.667.65c.476.706 1.049 1.02 1.837 1.02 1.074 0 1.829-.723 1.829-1.758 0-.85-.349-1.236-1.526-1.67m1.852.626c0 1.574 1.226 2.793 2.8 2.793.447 0 .828-.089 1.298-.312v-1.23c-.414.418-.78.586-1.25.586-1.042 0-1.782-.762-1.782-1.846 0-1.026.764-1.837 1.735-1.837.492 0 .867.176 1.297.602V.356c-.453-.232-.828-.328-1.274-.328-1.566 0-2.824 1.244-2.824 2.799m12.482.916L21.327.149h-1.129l2.252 5.487h.556L25.298.149h-1.122l-1.432 3.594m3.024 1.756h2.934v-.905h-1.9V3.148h1.828v-.905h-1.828V1.055h1.9V.149h-2.934v5.35m4.954-2.887h-.301V.99h.317c.646 0 .996.274.996.795 0 .537-.35.827-1.012.827zm2.076-.884c0-1.002-.683-1.579-1.877-1.579h-1.535v5.35h1.034v-2.15h.136l1.43 2.15h1.274l-1.671-2.254c.78-.16 1.209-.698 1.209-1.517z"/></g></g></g></g></g></svg>