<svg xmlns="http://www.w3.org/2000/svg" xmlns:xlink="http://www.w3.org/1999/xlink" width="40" height="40" xmlns:v="https://vecta.io/nano"><defs><rect id="A" width="40" height="30" rx="2.667"/></defs><g fill="none" fill-rule="evenodd"><rect width="40" height="30" rx="2.667" fill="#000" fill-rule="nonzero" y="5"/><g transform="translate(0 5)"><mask id="B" fill="#fff"><use xlink:href="#A"/></mask><g mask="url(#B)"><g fill-rule="nonzero"><path fill="#f9c623" d="M18.03 8.864c.651-.216 1.347-.331 2.071-.331 3.159 0 5.796 2.222 6.4 5.177l4.477-.904c-1.027-5.022-5.506-8.801-10.877-8.801-1.23 0-2.413.199-3.52.565l1.45 4.294"/><path fill="#009acb" d="M12.746 23.242l3.028-3.392c-1.352-1.187-2.204-2.918-2.204-4.847s.851-3.659 2.202-4.844l-3.028-3.392C10.448 8.782 9 11.725 9 15.003s1.45 6.224 3.746 8.239"/><path fill="#dc3e2a" d="M26.5 16.301c-.607 2.953-3.242 5.172-6.399 5.172-.725 0-1.422-.115-2.073-.332l-1.45 4.295c1.106.366 2.29.564 3.523.564 5.366 0 9.844-3.772 10.875-8.79l-4.477-.909"/></g></g></g></g></svg>