<svg xmlns="http://www.w3.org/2000/svg" width="40" height="40" fill-rule="evenodd" xmlns:v="https://vecta.io/nano"><rect width="40" height="30" fill="#b91d1d" rx="2" y="5"/><path d="M27.845 21.279c-.462.444-1.756.57-1.623-.491.11-.881 1.085-1.069 2.143-.941-.079.482-.17 1.094-.52 1.432zm-1.457-3.439c-.044.244-.112.464-.166.696.528-.13 2.172-.53 2.33.164.053.23-.038.475-.104.655-1.487-.139-2.699.104-3.017 1.145-.214.698.024 1.384.478 1.576.876.369 1.941-.054 2.31-.634-.038.2-.074.403-.062.654h.77c.008-.725.115-1.312.228-1.964.097-.556.279-1.106.25-1.596-.066-1.123-1.958-.726-3.017-.696zm7.72 3.786c-.603.012-.902-.354-.916-.962-.024-1.064.45-2.247 1.415-2.353.449-.05.774.053 1.103.164-.302 1.195-.193 3.12-1.602 3.15zM36.105 16l-.312 1.903c-2.195-.683-3.54.904-3.516 2.864.004.38.07.755.312 1.023.415.462 1.605.573 2.205.184.117-.075.235-.211.313-.306.057-.072.15-.259.166-.205-.032.208-.079.4-.083.634H36c.157-2.206.64-4.09.999-6.097h-.895zm-22.91 5.3c-.478.498-1.655.49-1.747-.349-.04-.365.098-.747.166-1.125l.188-1.084c.471-.566 1.857-.635 1.997.307.122.817-.207 1.837-.603 2.25zm.708-3.459c-.757-.28-1.68.055-2.08.372.001.014-.01.016-.021.017l.02-.017v-.003c.007-.137.056-.232.063-.369h-.77L10.012 24h.895l.395-2.353c.205.775 1.539.627 2.102.327 1.162-.617 2.058-3.557.5-4.133zm4.245 1.474h-2.101a1.23 1.23 0 0 1 1.185-1.023c.645-.025 1.107.232.916 1.023zm-.853-1.555c-.647.049-1.193.232-1.581.634-.477.493-.863 1.584-.75 2.578.162 1.417 1.957 1.366 3.392 1.023.025-.249.086-.462.125-.696-.591.218-1.618.522-2.226.144-.46-.286-.462-1.009-.313-1.637h2.934c.062-.446.237-.931.084-1.371-.203-.58-.928-.731-1.665-.675zm-7.865.08c-.025.004-.023.033-.021.062l-.75 4.194h.895l.77-4.256H9.43zm23.346.02c-.79-.388-1.45.264-1.706.656.073-.201.077-.47.145-.676h-.79l-.77 4.256h.915c.006-.564.119-.981.208-1.534.192-1.181.473-2.477 1.873-2.087l.125-.614zm-10.05 3.234c-.083-.21-.104-.556-.083-.819.046-.591.265-1.31.603-1.637.467-.45 1.388-.375 2.122-.122.023-.244.073-.461.104-.696-1.205-.193-2.348-.073-2.954.552-.594.613-.983 2.02-.708 2.906.322 1.036 1.765 1.092 2.934.695.052-.208.08-.44.125-.654-.639.326-1.86.496-2.143-.225zm-.5-3.254c-.793-.315-1.417.218-1.706.717.066-.222.093-.482.146-.717h-.79l-.75 4.256h.895c.125-.83.18-1.948.458-2.741.222-.635.804-1.175 1.643-.88.012-.234.08-.413.104-.635zm-14.42-1.717l-.416 2.414c-.927.01-1.873.045-2.767-.02l.458-2.394h-.999L3 22.097h1.02l.52-2.967 2.746.02-.54 2.947h1.019l1.082-5.974h-1.04zm2.54.9c.178-.12.407-.671.145-.9-.083-.073-.222-.094-.416-.063-.18.03-.284.09-.354.184-.113.152-.217.608-.042.778s.553.077.666 0z" fill="#fff" fill-rule="nonzero"/></svg>