<svg xmlns="http://www.w3.org/2000/svg" width="40" height="40" xmlns:v="https://vecta.io/nano"><defs><linearGradient id="A" x1="-57.527%" x2="232.391%" y1="50.124%" y2="50.124%"><stop offset="0%" stop-color="#007940"/><stop offset="22.85%" stop-color="#00873f"/><stop offset="74.33%" stop-color="#40a737"/><stop offset="100%" stop-color="#5cb531"/></linearGradient><linearGradient id="B" x1=".183%" x2="100.273%" y1="49.96%" y2="49.96%"><stop offset="0%" stop-color="#007940"/><stop offset="22.85%" stop-color="#00873f"/><stop offset="74.33%" stop-color="#40a737"/><stop offset="100%" stop-color="#5cb531"/></linearGradient><linearGradient id="C" x1="-62.802%" x2="253.671%" y1="49.858%" y2="49.858%"><stop offset="0%" stop-color="#007940"/><stop offset="22.85%" stop-color="#00873f"/><stop offset="74.33%" stop-color="#40a737"/><stop offset="100%" stop-color="#5cb531"/></linearGradient><linearGradient id="D" x1=".176%" x2="101.808%" y1="50.006%" y2="50.006%"><stop offset="0%" stop-color="#1f286f"/><stop offset="47.51%" stop-color="#004e94"/><stop offset="82.61%" stop-color="#0066b1"/><stop offset="100%" stop-color="#006fbc"/></linearGradient><linearGradient id="E" x1="-.576%" x2="98.133%" y1="49.914%" y2="49.914%"><stop offset="0%" stop-color="#6c2c2f"/><stop offset="17.35%" stop-color="#882730"/><stop offset="57.31%" stop-color="#be1833"/><stop offset="85.85%" stop-color="#dc0436"/><stop offset="100%" stop-color="#e60039"/></linearGradient></defs><g fill-rule="nonzero"><path fill="url(#A)" d="M30.476 23.095h2.58c.075 0 .247-.03.32-.03.492-.119.91-.654.91-1.398 0-.715-.418-1.25-.91-1.4-.073-.029-.22-.029-.32-.029h-2.58v2.857z"/><path fill="url(#B)" d="M32.665 5c-2.757 0-5.018 2.192-5.018 4.925v5.115h7.086c.166 0 .359 0 .497.027 1.599.081 2.785.893 2.785 2.3 0 1.11-.8 2.057-2.289 2.246v.054c1.627.108 2.868 1.001 2.868 2.382 0 1.488-1.379 2.462-3.199 2.462H27.62v10.013h7.362c2.758 0 5.019-2.192 5.019-4.925V5h-7.335z"/><path fill="url(#C)" d="M34.286 16.905c0-.78-.456-1.299-.993-1.396-.054 0-.188-.033-.268-.033h-2.549v2.857h2.549c.08 0 .241 0 .268-.032.537-.098.993-.617.993-1.396z"/><path fill="url(#D)" d="M5.046 5C2.29 5 .028 7.194.028 9.93v12.16c1.406.677 2.867 1.11 4.329 1.11 1.737 0 2.674-1.028 2.674-2.437v-5.742h4.302v5.715c0 2.221-1.406 4.036-6.177 4.036C2.261 24.773 0 24.15 0 24.15v10.374h7.362c2.758 0 5.019-2.194 5.019-4.93V5H5.046z"/><path fill="url(#E)" d="M19.304 5c-2.757 0-5.018 2.19-5.018 4.92v6.435c1.268-1.054 3.474-1.73 7.031-1.568 1.903.081 3.943.595 3.943.595v2.082c-1.02-.514-2.233-.974-3.805-1.082-2.702-.189-4.33 1.109-4.33 3.38 0 2.298 1.628 3.596 4.33 3.38 1.572-.109 2.785-.595 3.805-1.082v2.082s-2.013.514-3.943.595c-3.557.162-5.763-.514-7.031-1.569v11.356h7.362c2.758 0 5.019-2.19 5.019-4.92V5h-7.363z"/></g></svg>