<svg xmlns="http://www.w3.org/2000/svg" xmlns:xlink="http://www.w3.org/1999/xlink" width="40" height="40" xmlns:v="https://vecta.io/nano"><defs><rect id="A" width="40" height="30" rx="2.667"/></defs><g fill="none" fill-rule="evenodd"><rect width="40" height="30" rx="2.667" fill="#6798e5" fill-rule="nonzero" y="5"/><g transform="translate(0 5)"><mask id="B" fill="#fff"><use xlink:href="#A"/></mask><g mask="url(#B)"><path fill="#fff" fill-rule="nonzero" d="M20.722 6h-1.445c-4.442.37-7.944 4.11-7.944 8.657a8.69 8.69 0 0 0 7.944 8.656h1.446c4.441-.369 7.944-4.109 7.944-8.656S25.163 6.369 20.723 6zm0 4.373a4.35 4.35 0 0 1 0 8.568v-1.483a2.9 2.9 0 0 0 2.166-2.802c0-1.347-.922-2.478-2.166-2.8v-1.484zm-.723 5.732h-.722v5.756c-3.644-.365-6.5-3.456-6.5-7.204s2.856-6.84 6.5-7.205v5.758h.722a1.45 1.45 0 0 1 1.445 1.448 1.45 1.45 0 0 1-1.445 1.448zm.723 5.756V20.4c2.845-.358 5.055-2.794 5.055-5.742s-2.21-5.385-5.055-5.743V7.452c3.644.365 6.5 3.456 6.5 7.205s-2.856 6.84-6.5 7.204z"/></g></g></g></svg>