<svg xmlns="http://www.w3.org/2000/svg" xmlns:xlink="http://www.w3.org/1999/xlink" width="40" height="40" xmlns:v="https://vecta.io/nano"><defs><path id="A" d="M0 .109h40v7H0z"/><path id="B" d="M0 7.5l40 .239L39.833 0H0z"/></defs><g fill="none" fill-rule="evenodd"><path fill="#fefefe" d="M0 35h40V7H0z"/><g fill="#005197"><path d="M4.565 16.384l2.417 9.033h2.807l4.366-10.462h-2.847l-2.75 7.104-1.13-5.559zm10.392-1.429l-1.674 10.462h2.647l1.712-10.462zm10.906 2.411l.393-2.24s-1.18-.472-2.597-.472-4.487.904-4.487 3.537 3.818 2.753 3.818 4.206-3.424 1.299-4.448.356l-.433 2.319s1.535.59 2.912.59 4.803-.314 4.803-3.735c0-2.989-3.818-2.398-3.818-4.207 0 0 .393-1.808 3.857-.354m-.197 8.138h2.951l.512-1.533h3.62l.302 1.52h2.559l-2.348-10.562H30.9s-.866.099-1.259 1.14c-.374.99-3.976 9.436-3.976 9.436"/><path d="M8.254 20.603l-.842-4.18s-.114-1.57-1.234-1.57H1.606v.218s4.524.749 6.648 5.532"/></g><path fill="#fefefe" d="M32.317 21.77h-2.401l1.496-3.932z"/><g transform="translate(0 5)"><g transform="translate(0 22.891)"><mask id="C" fill="#fff"><use xlink:href="#A"/></mask><path fill="#f5a700" d="M40 .11H0v4.999a2 2 0 0 0 2 2h36a2 2 0 0 0 2-2v-5z" mask="url(#C)"/></g><mask id="D" fill="#fff"><use xlink:href="#B"/></mask><path fill="#005197" d="M0 7.108h40V2a2 2 0 0 0-2-2H2a2 2 0 0 0-2 2v5.108z" mask="url(#D)"/></g></g></svg>