<svg xmlns="http://www.w3.org/2000/svg" xmlns:xlink="http://www.w3.org/1999/xlink" width="40" height="40" viewBox="0 0 40 40">
    <defs>
        <path id="nbafvhrnxa" d="M0 0L19 0 19 14 0 14z"/>
        <path id="t90c02t6xc" d="M0 0L11 0 11 4 0 4z"/>
    </defs>
    <g fill="none" fill-rule="evenodd">
        <g>
            <g transform="translate(-361.000000, -277.000000) translate(361.000000, 277.000000)">
                <rect width="40" height="40" fill="#F4F6F8" rx="4"/>
                <g>
                    <path fill="#2C2A7A" d="M5.797 23.345c0 .214-.124.6-.748.6H2.971c-.436 0-.852-.472-.852-1.04 0-.567.27-1.038.935-1.038h2.743v1.478zM4.301 16c-2.42 0-3.347.615-3.935 2.4-.02.063.015.133.078.151l1.744.5c.06.017.123-.019.14-.08.074-.26.316-.873.955-.873h1.87c.353 0 .67.257.67.579l-.003 1.177H2.888C1.413 19.854 0 21.074 0 22.938 0 24.672.935 26 4.114 26 6.961 26 8 24.865 8 23.302v-4.304C8 18.056 7.543 16 4.301 16zM25.054 18.724c0-.204.12-.571.714-.571h2.083c.566 0 .812.366.812.907s-.102.99-.891.99h-2.718v-1.326zM26.7 26c2.42 0 3.347-.615 3.935-2.4.02-.063-.015-.133-.078-.15l-1.744-.501c-.06-.017-.123.019-.14.08-.074.26-.316.873-.955.873h-1.87c-.353 0-.67-.257-.67-.579l.003-1.178h2.932c1.475 0 2.888-1.22 2.888-3.083C31 17.328 30.065 16 26.886 16 24.039 16 23 17.135 23 18.698v4.304c0 .942.457 2.998 3.699 2.998zM15.5 21.54c1.513 0 2.78-2.214 3.027-2.673.027-.051.08-.083.136-.083.085 0 .155.072.155.161v6.879c0 .097.075.176.169.176h1.843c.094 0 .17-.079.17-.176V17.777c0-.981-.765-1.777-1.709-1.777-.926 0-1.42.407-1.976 1.135S15.827 19.47 15.5 19.47c-.327 0-1.259-1.606-1.815-2.334S12.635 16 11.71 16c-.944 0-1.709.796-1.709 1.777v8.046c0 .098.076.177.17.177h1.843c.094 0 .17-.079.17-.176v-6.879c0-.089.069-.161.154-.161.057 0 .109.032.136.083.247.46 1.514 2.674 3.027 2.674" transform="translate(4.500000, 7.000000)"/>
                    <g transform="translate(4.500000, 7.000000) translate(6.000000, 0.000000)">
                        <mask id="inym6ori2b" fill="#fff">
                            <use xlink:href="#nbafvhrnxa"/>
                        </mask>
                        <path fill="#ED2E60" d="M9.5 14c.477 0 .935-.19 1.272-.527l7.737-7.737c.315-.315.491-.741.491-1.186v-.093c0-.45-.18-.88-.5-1.195L15.527.34c-.222-.218-.52-.34-.832-.34H4.304c-.311 0-.61.122-.832.34L.501 3.262C.18 3.577 0 4.008 0 4.457v.093c0 .445.176.871.49 1.186l7.738 7.737c.337.337.795.527 1.272.527" mask="url(#inym6ori2b)"/>
                    </g>
                    <g transform="translate(4.500000, 7.000000) translate(10.000000, 0.000000)">
                        <mask id="biduisjupd" fill="#fff">
                            <use xlink:href="#t90c02t6xc"/>
                        </mask>
                        <path fill="#2C2A7A" d="M.003.006L0 .03C.35.03.687.162.947.4l3.618 3.32c.197.18.452.28.717.28h.436c.265 0 .52-.1.717-.28L10.053.4c.26-.238.597-.37.947-.37l-.004-.024C10.956.002 10.917 0 10.877 0H.123c-.04 0-.08.002-.12.006" mask="url(#biduisjupd)"/>
                    </g>
                </g>
            </g>
        </g>
    </g>
</svg>
