<svg xmlns="http://www.w3.org/2000/svg" width="40" height="40" viewBox="0 0 40 40">
    <g fill="none" fill-rule="evenodd">
        <g>
            <g>
                <path d="M0 0H40V40H0z" transform="translate(-201.000000, -158.000000) translate(201.000000, 158.000000)"/>
                <path fill="#7A8085" d="M28 3.333c2.21 0 4 1.791 4 4v25c0 2.21-1.79 4-4 4H12c-2.21 0-4-1.79-4-4v-25c0-2.209 1.79-4 4-4h16zM25.282 21.4c-.293.01-.343.06-.35.354-.003.13 0 .266 0 .397-.003.394-.003.387-.38.522-.91.33-1.472.95-1.532 1.942-.054.88.404 1.472 1.124 1.903.445.266.936.424 1.408.633.185.08.36.175.511.303.455.373.37.996-.168 1.232-.29.124-.592.158-.902.118-.482-.06-.943-.186-1.374-.411-.252-.131-.326-.098-.414.178-.074.24-.141.478-.205.717-.088.324-.058.401.252.55.39.188.812.285 1.24.356.332.054.346.067.35.414 0 .158.003.317.003.472.003.198.097.313.303.316.232.003.464.003.697 0 .188-.003.286-.108.29-.3 0-.215.01-.43.002-.646-.01-.219.085-.33.297-.387.485-.131.899-.394 1.219-.781.875-1.078.538-2.65-.714-3.343-.394-.22-.812-.38-1.226-.553-.239-.097-.468-.215-.67-.377-.397-.32-.323-.835.145-1.04.131-.057.27-.077.41-.084.543-.03 1.055.07 1.546.306.243.118.323.081.408-.172.087-.269.161-.542.239-.81.053-.183-.014-.304-.186-.378-.313-.138-.636-.24-.976-.29-.441-.07-.441-.07-.444-.515-.003-.55-.004-.62-.423-.626h-.207c-.09 0-.182-.003-.273 0zM21.5 16.333h-8c-.828 0-1.5.672-1.5 1.5 0 .829.672 1.5 1.5 1.5h8c.828 0 1.5-.671 1.5-1.5 0-.828-.672-1.5-1.5-1.5zm5-6h-13c-.828 0-1.5.672-1.5 1.5 0 .829.672 1.5 1.5 1.5h13c.828 0 1.5-.671 1.5-1.5 0-.828-.672-1.5-1.5-1.5z" transform="translate(-201.000000, -158.000000) translate(201.000000, 158.000000)"/>
            </g>
        </g>
    </g>
</svg>
