<svg xmlns="http://www.w3.org/2000/svg" width="40" height="40" viewBox="0 0 40 40">
    <g fill="none" fill-rule="evenodd">
        <g>
            <g transform="translate(-41.000000, -278.000000) translate(41.000000, 278.000000)">
                <rect width="40" height="40" fill="#F4F6F8" rx="4"/>
                <g fill-rule="nonzero">
                    <path fill="#2196F3" d="M3.125 0h23.75C28.601 0 30 1.4 30 3.125v13.75C30 18.601 28.6 20 26.875 20H3.125C1.399 20 0 18.6 0 16.875V3.125C0 1.399 1.4 0 3.125 0z" transform="translate(5.000000, 10.000000)"/>
                    <path fill="#455A64" d="M0 3.75H30V8.75H0z" transform="translate(5.000000, 10.000000)"/>
                    <g fill="#FAFAFA">
                        <path d="M5.625 1.25h-5C.28 1.25 0 .97 0 .625S.28 0 .625 0h5c.345 0 .625.28.625.625s-.28.625-.625.625zM9.375 3.75H.625C.28 3.75 0 3.47 0 3.125S.28 2.5.625 2.5h8.75c.345 0 .625.28.625.625s-.28.625-.625.625z" transform="translate(5.000000, 10.000000) translate(3.750000, 12.499980)"/>
                    </g>
                </g>
            </g>
        </g>
    </g>
</svg>
