<svg xmlns="http://www.w3.org/2000/svg" width="40" height="40" viewBox="0 0 40 40">
    <g fill="none" fill-rule="evenodd">
        <g>
            <g>
                <path d="M0 0H40V40H0z" transform="translate(-41.000000, -23.000000) translate(41.000000, 23.000000)"/>
                <g fill="#FFF" fill-rule="nonzero">
                    <path d="M0 9.806v9.83c0 2.831 2.094 5.126 4.678 5.126h25.31c2.584 0 4.679-2.295 4.679-5.126v-9.83c0-.493-.365-.892-.814-.892H.813c-.449 0-.813.4-.813.892zm9.209 7.032h-2.57c-.932 0-1.687-.887-1.687-1.98 0-1.095.755-1.982 1.687-1.982h2.57c.931 0 1.686.887 1.686 1.981s-.755 1.981-1.686 1.981zM34.667 5.227v-.31C34.667 2.203 32.572 0 29.989 0H4.678C2.094 0 0 2.202 0 4.918v.309c0 .472.364.855.814.855h33.04c.448 0 .813-.383.813-.855z" transform="translate(-41.000000, -23.000000) translate(41.000000, 23.000000) translate(2.666667, 8.000000)"/>
                </g>
            </g>
        </g>
    </g>
</svg>
