<svg xmlns="http://www.w3.org/2000/svg" width="40" height="40" viewBox="0 0 40 40">
    <g fill="none" fill-rule="evenodd">
        <g>
            <g transform="translate(-681.000000, -278.000000) translate(681.000000, 278.000000)">
                <rect width="40" height="40" fill="#F4F6F8" rx="4"/>
                <g fill="#EF6C00" fill-rule="nonzero">
                    <g>
                        <path d="M23.681 4.934h-1.844c.243-.386.404-.82.45-1.28.146-1.467-.623-2.782-1.933-3.365-1.203-.536-2.556-.317-3.53.57l-2.329 2.12c-.453-.498-1.105-.81-1.828-.81-.725 0-1.378.313-1.832.813L8.504.86C7.528-.028 6.176-.246 4.974.29c-1.31.583-2.08 1.898-1.933 3.365.046.459.207.893.45 1.28H1.652C.74 4.934 0 5.676 0 6.593v2.49c0 .457.37.829.826.829h23.681c.456 0 .826-.371.826-.83v-2.49c0-.916-.74-1.659-1.652-1.659zm-13.493-.276v.276H6.302c-1.027 0-1.835-.961-1.578-2.035.113-.473.453-.876.892-1.08.604-.28 1.272-.19 1.779.27l2.794 2.544v.025zm10.46-1.224c-.062.863-.838 1.5-1.699 1.5h-3.804v-.276-.03l2.75-2.504c.423-.385 1.015-.565 1.563-.401.785.235 1.247.906 1.19 1.711zM2.203 12.116v11.631c0 .876.696 1.586 1.555 1.586h7.256V12.116H2.203zM14.319 12.116v13.217h7.256c.86 0 1.555-.71 1.555-1.586V12.116H14.32z" transform="translate(7.333333, 7.333333) translate(0.000000, 0.000000)"/>
                    </g>
                </g>
            </g>
        </g>
    </g>
</svg>
