<svg xmlns="http://www.w3.org/2000/svg" width="40" height="40" viewBox="0 0 40 40">
    <g fill="none" fill-rule="evenodd">
        <g>
            <g>
                <path d="M0 0H40V40H0z" transform="translate(-601.000000, -23.000000) translate(601.000000, 23.000000)"/>
                <g fill="#FFF" fill-rule="nonzero" transform="translate(-601.000000, -23.000000) translate(601.000000, 23.000000) translate(2.666667, 9.333333)">
                    <path d="M33.313 0H1.354C.606 0 0 .606 0 1.354V20.88c0 .747.606 1.354 1.354 1.354h31.958c.748 0 1.355-.607 1.355-1.354V1.354C34.667.606 34.06 0 33.312 0zM32.13 15.635c0 .56-.455 1.015-1.016 1.015-1.12 0-2.03.91-2.03 2.03 0 .561-.454 1.016-1.016 1.016H6.598c-.561 0-1.015-.455-1.015-1.016 0-1.12-.911-2.03-2.03-2.03-.562 0-1.016-.454-1.016-1.015V6.598c0-.561.454-1.015 1.016-1.015 1.119 0 2.03-.911 2.03-2.03 0-.562.454-1.016 1.015-1.016h21.47c.562 0 1.016.454 1.016 1.016 0 1.119.91 2.03 2.03 2.03.561 0 1.016.454 1.016 1.015v9.037z"/>
                    <path d="M27.182 4.568H7.485c-.368 1.425-1.492 2.549-2.917 2.917v7.263c1.425.368 2.549 1.492 2.917 2.916h19.697c.368-1.424 1.492-2.548 2.916-2.916V7.485c-1.424-.368-2.548-1.492-2.916-2.917zM9.783 12.132H8.667c-.562 0-1.016-.455-1.016-1.016 0-.56.454-1.015 1.016-1.015h1.116c.56 0 1.016.455 1.016 1.015 0 .561-.455 1.016-1.016 1.016zm7.55 2.779c-2.092 0-3.794-1.702-3.794-3.795 0-2.092 1.702-3.794 3.794-3.794 2.093 0 3.795 1.702 3.795 3.794 0 2.093-1.702 3.795-3.795 3.795zM26 12.132h-1.117c-.56 0-1.015-.455-1.015-1.016 0-.56.455-1.015 1.015-1.015H26c.561 0 1.016.455 1.016 1.015 0 .561-.455 1.016-1.016 1.016z"/>
                    <circle cx="17.333" cy="11.116" r="1.763"/>
                </g>
            </g>
        </g>
    </g>
</svg>
