<svg xmlns="http://www.w3.org/2000/svg" width="40" height="40" viewBox="0 0 40 40">
    <g fill="none" fill-rule="evenodd">
        <g>
            <g transform="translate(-601.000000, -279.000000) translate(601.000000, 279.000000)">
                <rect width="40" height="40" fill="#F4F6F8" rx="4"/>
                <g fill-rule="nonzero">
                    <path fill="#408D69" d="M16.89 3.782l7.767 13.613h1.36c.25 0 .454-.203.454-.454V3.781h-9.58z" transform="translate(5.000000, 11.000000)"/>
                    <path fill="#53A143" d="M0 4.235v12.706c0 .25.204.454.455.454h24.25V3.782H.456c-.251 0-.455.203-.455.453z" transform="translate(5.000000, 11.000000)"/>
                    <path fill="#53A143" d="M18.655 2.017l7.767 13.613h1.36c.25 0 .453-.203.453-.454V2.016h-9.58z" transform="translate(5.000000, 11.000000)"/>
                    <path fill="#60BA4D" d="M1.765 2.47v12.706c0 .251.204.454.455.454h24.25V2.017H2.22c-.251 0-.455.203-.455.454z" transform="translate(5.000000, 11.000000)"/>
                    <path fill="#60BA4D" d="M28.235 0l-3.53 6.807 3.53 6.806h1.324c.243 0 .441-.203.441-.453V.454c0-.25-.198-.454-.441-.454h-1.324z" transform="translate(5.000000, 11.000000)"/>
                    <path fill="#85CF75" d="M3.53.454V13.16c0 .25.203.453.455.453h24.25v-3.63l-3.642-3.176 3.642-3.177V0H3.985c-.252 0-.456.203-.456.454z" transform="translate(5.000000, 11.000000)"/>
                    <path fill="#FFEAC3" d="M5.546 10.015V3.598c0-1.012.809-1.833 1.806-1.833H26.43c.997 0 1.805.82 1.805 1.833v6.417c0 1.013-.808 1.834-1.805 1.834H7.352c-.997 0-1.806-.821-1.806-1.834z" transform="translate(5.000000, 11.000000)"/>
                    <path fill="#53A143" d="M12.605 5.951v1.711c0 2.312 1.862 4.187 4.16 4.187 2.297 0 4.16-1.875 4.16-4.187v-1.71c0-2.313-1.863-4.187-4.16-4.187-2.298 0-4.16 1.874-4.16 4.186z" transform="translate(5.000000, 11.000000)"/>
                    <path fill="#60BA4D" d="M16.639 3.782v6.302c1.25 0 2.269-1.037 2.269-2.31V6.091c0-1.274-1.018-2.31-2.27-2.31z" transform="translate(5.000000, 11.000000)"/>
                    <g fill="#85CF75" transform="translate(5.000000, 11.000000) translate(7.310924, 3.781513)">
                        <path d="M10.094 3.992V2.31C10.094 1.037 9.864 0 9.58 0 8.297 0 7.253 1.037 7.253 2.31v1.682c0 1.274 1.044 2.31 2.327 2.31.283 0 .514-1.036.514-2.31z"/>
                        <ellipse cx="1.813" cy="3.151" rx="1.813" ry="1.801"/>
                        <ellipse cx="17.346" cy="3.151" rx="1.813" ry="1.801"/>
                    </g>
                </g>
            </g>
        </g>
    </g>
</svg>
