<svg xmlns="http://www.w3.org/2000/svg" width="40" height="40" viewBox="0 0 40 40">
    <g fill="none" fill-rule="evenodd">
        <g>
            <g transform="translate(-761.000000, -279.000000) translate(761.000000, 279.000000)">
                <rect width="40" height="40" fill="#F4F6F8" rx="4"/>
                <g>
                    <path d="M0 0H30V30H0z" transform="translate(5.000000, 5.000000)"/>
                    <path d="M0 0H30V30H0z" transform="translate(5.000000, 5.000000)"/>
                    <path fill="#084E8A" d="M6.111 12c1.718 0 3.111 1.393 3.111 3.111 0 1.718-1.393 3.111-3.11 3.111-1.72 0-3.112-1.393-3.112-3.11C3 13.391 4.393 12 6.111 12zM15 12c1.718 0 3.111 1.393 3.111 3.111 0 1.718-1.393 3.111-3.111 3.111-1.718 0-3.111-1.393-3.111-3.11C11.889 13.391 13.282 12 15 12zm8.889 0C25.607 12 27 13.393 27 15.111c0 1.718-1.393 3.111-3.111 3.111-1.718 0-3.111-1.393-3.111-3.11 0-1.72 1.393-3.112 3.11-3.112z" transform="translate(5.000000, 5.000000)"/>
                </g>
            </g>
        </g>
    </g>
</svg>
