<svg xmlns="http://www.w3.org/2000/svg" width="40" height="40" viewBox="0 0 40 40">
    <g fill="none" fill-rule="evenodd">
        <g>
            <g>
                <path d="M0 0H40V40H0z" transform="translate(-761.000000, -158.000000) translate(761.000000, 158.000000)"/>
                <path d="M0 0H40V40H0z" transform="translate(-761.000000, -158.000000) translate(761.000000, 158.000000)"/>
                <path fill="#7A8085" d="M8.148 16c2.291 0 4.148 1.857 4.148 4.148 0 2.291-1.857 4.148-4.148 4.148C5.858 24.296 4 22.44 4 20.148 4 17.858 5.857 16 8.148 16zM20 16c2.291 0 4.148 1.857 4.148 4.148 0 2.291-1.857 4.148-4.148 4.148-2.291 0-4.148-1.857-4.148-4.148C15.852 17.858 17.709 16 20 16zm11.852 0C34.142 16 36 17.857 36 20.148c0 2.291-1.857 4.148-4.148 4.148-2.291 0-4.148-1.857-4.148-4.148 0-2.29 1.857-4.148 4.148-4.148z" transform="translate(-761.000000, -158.000000) translate(761.000000, 158.000000)"/>
            </g>
        </g>
    </g>
</svg>
