<svg xmlns="http://www.w3.org/2000/svg" width="40" height="40" viewBox="0 0 40 40">
    <g fill="none" fill-rule="evenodd">
        <g>
            <g>
                <path d="M0 0H40V40H0z" transform="translate(-521.000000, -23.000000) translate(521.000000, 23.000000)"/>
                <g>
                    <path fill="#FFF" d="M23.007 7.61c.368-2.33-.002-3.915-1.27-5.351C20.342.677 17.821 0 14.595 0H5.232c-.66 0-1.22.477-1.323 1.125L.01 25.708c-.077.485.3.924.794.924h5.78l-.399 2.516c-.067.424.263.808.695.808h4.872c.576 0 1.067-.418 1.157-.984l.048-.246.918-5.788.06-.32c.089-.566.58-.983 1.157-.983h.729c4.72 0 8.415-1.907 9.495-7.421.451-2.305.218-4.228-.975-5.58-.361-.41-.81-.748-1.334-1.023l-7.915 11.452" transform="translate(-521.000000, -23.000000) translate(521.000000, 23.000000) translate(6.666667, 5.333333)"/>
                    <path fill="#D4D7D9" d="M21.742 2.252C20.346.675 17.825 0 14.598 0H5.233c-.66 0-1.22.476-1.323 1.121l-3.9 24.51c-.077.483.3.92.794.92h5.782l1.452-9.127-.045.286c.103-.645.66-1.121 1.319-1.121h2.748c5.396 0 9.622-2.173 10.857-8.458.036-.186.067-.366.095-.543.368-2.324-.002-3.904-1.27-5.336z" transform="translate(-521.000000, -23.000000) translate(521.000000, 23.000000) translate(6.666667, 5.333333)"/>
                </g>
            </g>
        </g>
    </g>
</svg>
