<svg xmlns="http://www.w3.org/2000/svg" width="40" height="40" viewBox="0 0 40 40">
    <g fill="none" fill-rule="evenodd">
        <g>
            <g transform="translate(-441.000000, -279.000000) translate(441.000000, 279.000000)">
                <rect width="40" height="40" fill="#F4F6F8" rx="4"/>
                <g>
                    <path d="M0 0H34V34H0z" transform="translate(3.000000, 3.000000)"/>
                    <g fill="#21C25E">
                        <path d="M4.544 8.304V15.2h4.464c.985 0 1.886-.394 2.536-1.034.624-.615 1.015-1.466 1.015-2.414 0-.949-.39-1.8-1.015-2.414-.65-.64-1.55-1.034-2.536-1.034H4.544zM0 25V8.304h4.536V4.032h4.472c2.12 0 4.07.858 5.485 2.252 1.42 1.398 2.307 3.326 2.307 5.468 0 2.141-.887 4.07-2.307 5.467-1.416 1.394-3.364 2.252-5.485 2.252H4.544V25H0zM20.649 7.41h5.902V1.46H20.65v5.95zm1.449-1.46h3.004V2.92h-3.004V5.95zM19.2 8.87H28V0h-8.8v8.871z" transform="translate(3.000000, 3.000000) translate(3.000000, 5.000000)"/>
                    </g>
                </g>
            </g>
        </g>
    </g>
</svg>
