<svg xmlns="http://www.w3.org/2000/svg" width="40" height="40" viewBox="0 0 40 40">
    <g fill="none" fill-rule="evenodd">
        <g>
            <g>
                <path d="M0 0H40V40H0z" transform="translate(-441.000000, -158.000000) translate(441.000000, 158.000000)"/>
                <g fill="#7A8085">
                    <path d="M5.382 9.756v8.101h5.286c1.167 0 2.234-.462 3.004-1.214.74-.723 1.202-1.722 1.202-2.836 0-1.114-.463-2.114-1.202-2.837-.77-.751-1.837-1.214-3.004-1.214H5.382zM0 29.37V9.756h5.372V4.737h5.296c2.512 0 4.82 1.008 6.496 2.646 1.682 1.642 2.733 3.907 2.733 6.424 0 2.516-1.05 4.78-2.733 6.423-1.676 1.638-3.984 2.646-6.496 2.646H5.382v6.495H0zM24.455 8.706h6.99v-6.99h-6.99v6.99zm1.716-1.716h3.558V3.432h-3.558V6.99zm-3.432 3.432h10.422V0H22.74v10.422z" transform="translate(-441.000000, -158.000000) translate(441.000000, 158.000000) translate(4.000000, 5.333333)"/>
                </g>
            </g>
        </g>
    </g>
</svg>
