<svg xmlns="http://www.w3.org/2000/svg" width="40" height="40" viewBox="0 0 40 40">
    <g fill="none" fill-rule="evenodd">
        <g>
            <g>
                <path d="M0 0H40V40H0z" transform="translate(-121.000000, -158.000000) translate(121.000000, 158.000000)"/>
                <g fill="#7A8085">
                    <path d="M22.876 22.44c-1.15 0-2.233-.448-3.047-1.262l-4.4-4.4c-.309-.309-.847-.308-1.156 0l-4.416 4.416c-.813.814-1.896 1.262-3.047 1.262h-.867l5.573 5.572c1.74 1.74 4.561 1.74 6.302 0l5.588-5.588h-.53M6.81 6.877c1.151 0 2.234.449 3.047 1.262l4.416 4.416c.318.319.837.32 1.156 0l4.4-4.4c.814-.813 1.896-1.261 3.047-1.261h.53l-5.588-5.589c-1.74-1.74-4.562-1.74-6.302 0L5.943 6.877h.867" transform="translate(-121.000000, -158.000000) translate(121.000000, 158.000000) translate(5.333333, 5.333333)"/>
                    <path d="M28.028 11.516l-3.377-3.377c-.074.03-.155.048-.24.048h-1.535c-.794 0-1.571.322-2.132.883l-4.4 4.4c-.411.412-.952.618-1.493.618-.54 0-1.081-.206-1.493-.618L8.942 9.054c-.56-.561-1.338-.883-2.132-.883H4.922c-.08 0-.155-.019-.226-.046l-3.39 3.39c-1.741 1.74-1.741 4.562 0 6.303l3.39 3.39c.07-.027.146-.046.226-.046H6.81c.794 0 1.57-.322 2.132-.883l4.416-4.416c.798-.797 2.19-.798 2.987 0l4.4 4.4c.56.561 1.337.883 2.131.883h1.535c.085 0 .166.019.24.048l3.377-3.376c1.74-1.74 1.74-4.562 0-6.302" transform="translate(-121.000000, -158.000000) translate(121.000000, 158.000000) translate(5.333333, 5.333333)"/>
                </g>
            </g>
        </g>
    </g>
</svg>
