<svg xmlns="http://www.w3.org/2000/svg" width="40" height="40" viewBox="0 0 40 40">
    <g fill="none" fill-rule="evenodd">
        <g>
            <g transform="translate(-121.000000, -278.000000) translate(121.000000, 278.000000)">
                <rect width="40" height="40" fill="#F4F6F8" rx="4"/>
                <g>
                    <path fill="#939598" fill-rule="nonzero" d="M16.893 1.893l2.116.003c1.422.003 2.575 1.145 2.598 2.562V6.026c0 1.426-1.143 2.584-2.564 2.607H16.01c-.121 0-.22-.098-.22-.22 0-.117.09-.212.205-.22H19.001c1.184 0 2.146-.951 2.165-2.131V4.5c0-1.181-.946-2.142-2.122-2.163h-.036l-2.115-.003c-1.185 0-2.147.95-2.167 2.13v7.201c0 .122-.099.221-.22.221-.117 0-.213-.09-.22-.205l-.001-.016V4.501c0-1.44 1.167-2.608 2.608-2.608zm6.003 0c.653 0 1.185.521 1.2 1.17V8.446c0 .122-.098.22-.22.22-.117 0-.213-.09-.22-.205V3.093c0-.412-.328-.747-.737-.76H21.978c-.121 0-.22-.098-.22-.22 0-.117.09-.212.205-.22h.933z" transform="translate(2.000000, 14.000000)"/>
                    <path fill="#32BCAD" d="M23.68 1.284l-.417-.417c-.103-.103-.103-.27 0-.374l.416-.415c.103-.104.27-.104.374 0l.416.415c.104.104.104.271 0 .374l-.416.417c-.103.103-.27.103-.374 0" transform="translate(2.000000, 14.000000)"/>
                    <path fill="#939598" fill-rule="nonzero" d="M31.058 5.577l.02.02 2.121 2.12c.28.281.658.443 1.054.452h.778c.122 0 .22.1.22.221 0 .117-.09.213-.205.22l-.015.001h-.74c-.512 0-1.004-.198-1.373-.552l-.03-.03-2.122-2.12c-.184-.185-.479-.19-.67-.017l-.016.017-2.13 2.128c-.361.363-.85.57-1.36.582H25.636c-.122 0-.221-.099-.221-.22 0-.117.09-.213.205-.22l.015-.001h.91c.397 0 .779-.153 1.065-.426l.028-.027 2.129-2.128c.348-.35.905-.362 1.27-.039l.02.019zm-4.511-3.69c.512 0 1.004.199 1.373.552l.03.03 2.13 2.129c.184.184.479.19.67.016l.016-.016 2.121-2.121c.362-.362.85-.57 1.362-.581h.782c.122 0 .22.098.22.22 0 .117-.09.212-.205.22h-.755c-.397 0-.778.153-1.064.426l-.028.027-2.12 2.12c-.356.356-.928.363-1.291.02l-.02-.02-2.13-2.128c-.28-.28-.657-.442-1.053-.452H25.637c-.122 0-.221-.1-.221-.22 0-.118.09-.213.205-.221h.925z" transform="translate(2.000000, 14.000000)"/>
                    <path fill="#32BCAD" d="M9.08 9.758c-.457 0-.887-.178-1.21-.5L6.124 7.51c-.123-.123-.336-.122-.459 0L3.912 9.264c-.323.323-.752.5-1.209.5h-.344l2.212 2.212c.69.691 1.81.691 2.5 0L9.29 9.758h-.21M2.703 3.582c.457 0 .886.177 1.21.5l1.752 1.753c.126.126.332.127.459 0L7.87 4.089c.323-.323.753-.501 1.21-.501h.21L7.072 1.37c-.69-.69-1.81-.69-2.501 0L2.359 3.582h.344" transform="translate(2.000000, 14.000000)"/>
                    <path fill="#32BCAD" d="M11.124 5.422l-1.34-1.34c-.03.012-.061.02-.095.02h-.61c-.315 0-.623.127-.846.35L6.487 6.198c-.163.164-.378.245-.592.245-.215 0-.43-.081-.593-.245L3.549 4.445c-.222-.222-.53-.35-.846-.35h-.75c-.031 0-.061-.008-.09-.018L.519 5.422c-.69.691-.69 1.811 0 2.502l1.346 1.345c.028-.01.058-.018.09-.018h.749c.315 0 .623-.128.846-.35l1.753-1.753c.317-.316.869-.317 1.185 0l1.746 1.746c.223.223.531.35.847.35h.609c.034 0 .066.008.095.02l1.34-1.34c.691-.691.691-1.81 0-2.502" transform="translate(2.000000, 14.000000)"/>
                </g>
            </g>
        </g>
    </g>
</svg>
