<svg xmlns="http://www.w3.org/2000/svg" width="40" height="40" viewBox="0 0 40 40">
    <g fill="none" fill-rule="evenodd">
        <g>
            <g transform="translate(-281.000000, -278.000000) translate(281.000000, 278.000000)">
                <rect width="40" height="40" fill="#F4F6F8" rx="4"/>
                <g fill="#084E8A">
                    <path d="M14 0c7.732 0 14 6.268 14 14s-6.268 14-14 14S0 21.732 0 14 6.268 0 14 0zm-2.364 14l-6.303 4.667 6.303 4.666v-2.546h-.134c4.698-.022 7.775-.718 9.232-2.089 1.456-1.37 2.09-2.897 1.9-4.58-.81 2.474-4.476 3.354-10.997 2.639V14zm4.728-8.91v2.547h.134c-4.698.022-7.775.719-9.232 2.089-1.456 1.37-2.09 2.897-1.9 4.58.81-2.474 4.476-3.353 10.997-2.639v2.757l6.304-4.666-6.303-4.667z" transform="translate(6.000000, 6.000000)"/>
                </g>
            </g>
        </g>
    </g>
</svg>
