<svg xmlns="http://www.w3.org/2000/svg" xmlns:xlink="http://www.w3.org/1999/xlink" width="40" height="40" xmlns:v="https://vecta.io/nano"><defs><path id="A" d="M0 0h32v23.578H0z"/><path id="B" d="M0 0h17.902v6.396H0z"/></defs><g fill="none" fill-rule="evenodd"><g transform="translate(4 9.333)"><mask id="C" fill="#fff"><use xlink:href="#A"/></mask><path fill="#fff" d="M16 23.578c.803 0 1.574-.32 2.142-.887L31.173 9.66c.53-.53.827-1.248.827-1.996v-.158a2.82 2.82 0 0 0-.844-2.012L26.152.574C25.778.205 25.275 0 24.75 0H7.249c-.524 0-1.027.206-1.4.573L.843 5.493A2.83 2.83 0 0 0 0 7.507v.158A2.82 2.82 0 0 0 .827 9.66l13.03 13.03a3.03 3.03 0 0 0 2.143.888" mask="url(#C)"/></g><g transform="translate(11.049 9.333)"><mask id="D" fill="#fff"><use xlink:href="#B"/></mask><path fill="#d4d7d9" d="M0 .049c.57 0 1.119.21 1.541.592L7.43 5.947a1.74 1.74 0 0 0 1.168.45h.708a1.74 1.74 0 0 0 1.168-.45L16.361.641a2.3 2.3 0 0 1 1.54-.592l-.005-.04-.194-.01H.2L.005.01 0 .05z" mask="url(#D)"/></g></g></svg>