<svg xmlns="http://www.w3.org/2000/svg" xmlns:xlink="http://www.w3.org/1999/xlink" width="40" height="40" xmlns:v="https://vecta.io/nano"><defs><path id="A" d="M0 0h19v14H0z"/><path id="B" d="M0 0h11v4H0z"/></defs><g fill="none" fill-rule="evenodd"><rect width="40" height="40" fill="#f4f6f8" rx="4"/><path fill="#2c2a7a" d="M10.297 30.345c0 .214-.124.6-.748.6H7.471c-.436 0-.852-.472-.852-1.04s.27-1.038.935-1.038h2.743v1.478zM8.801 23c-2.42 0-3.347.615-3.935 2.4a.12.12 0 0 0 .078.151l1.744.5c.06.017.123-.019.14-.08.074-.26.316-.873.955-.873h1.87c.353 0 .67.257.67.579l-.003 1.177H7.388c-1.475 0-2.888 1.22-2.888 3.084C4.5 31.672 5.435 33 8.614 33c2.847 0 3.886-1.135 3.886-2.698v-4.304c0-.942-.457-2.998-3.699-2.998zm20.753 2.724c0-.204.12-.571.714-.571h2.083c.566 0 .812.366.812.907s-.102.99-.891.99h-2.718v-1.326zM31.2 33c2.42 0 3.347-.615 3.935-2.4.02-.063-.015-.133-.078-.15l-1.744-.501c-.06-.017-.123.019-.14.08-.074.26-.316.873-.955.873h-1.87c-.353 0-.67-.257-.67-.579l.003-1.178h2.932c1.475 0 2.888-1.22 2.888-3.083C35.5 24.328 34.565 23 31.386 23c-2.847 0-3.886 1.135-3.886 2.698v4.304c0 .942.457 2.998 3.699 2.998zM20 28.54c1.513 0 2.78-2.214 3.027-2.673.027-.051.08-.083.136-.083.085 0 .155.072.155.161v6.879c0 .097.075.176.169.176h1.843c.094 0 .17-.079.17-.176v-8.047c0-.981-.765-1.777-1.709-1.777-.926 0-1.42.407-1.976 1.135S20.327 26.47 20 26.47s-1.259-1.606-1.815-2.334S17.135 23 16.21 23c-.944 0-1.709.796-1.709 1.777v8.046c0 .098.076.177.17.177h1.843c.094 0 .17-.079.17-.176v-6.879c0-.089.069-.161.154-.161.057 0 .109.032.136.083.247.46 1.514 2.674 3.027 2.674"/><g transform="translate(10.5 7)"><mask id="C" fill="#fff"><use xlink:href="#A"/></mask><path fill="#ed2e60" d="M9.5 14a1.8 1.8 0 0 0 1.272-.527l7.737-7.737c.315-.315.491-.741.491-1.186v-.093c0-.45-.18-.88-.5-1.195L15.527.34c-.222-.218-.52-.34-.832-.34H4.304a1.19 1.19 0 0 0-.832.34L.501 3.262C.18 3.577 0 4.008 0 4.457v.093a1.68 1.68 0 0 0 .49 1.186l7.738 7.737A1.8 1.8 0 0 0 9.5 14" mask="url(#C)"/></g><g transform="translate(14.5 7)"><mask id="D" fill="#fff"><use xlink:href="#B"/></mask><path fill="#2c2a7a" d="M.003.006L0 .03A1.4 1.4 0 0 1 .947.4l3.618 3.32c.197.18.452.28.717.28h.436c.265 0 .52-.1.717-.28L10.053.4A1.4 1.4 0 0 1 11 .03l-.004-.024L10.877 0H.123l-.12.006" mask="url(#D)"/></g></g></svg>