<svg width="40" height="40" viewBox="0 0 40 40" xmlns="http://www.w3.org/2000/svg"><g transform="matrix(.83334 0 0 .83334 3.3331 3.3333)" fill="none" fill-rule="evenodd"><g transform="matrix(.76788 0 0 .76788 4.97 2)" fill="#000"><path d="m26.46 7.5134c1.617-2.0226 2.7143-4.7383 2.4249-7.5134-2.3671 0.1177-5.2557 1.5617-6.9281 3.5858-1.5016 1.7334-2.8306 4.5628-2.4842 7.2216 2.6572 0.2305 5.3119-1.3282 6.9873-3.294"/><path d="m28.855 11.326c-3.8589-0.22986-7.1399 2.1901-8.9827 2.1901-1.8438 0-4.6658-2.0743-7.718-2.0184-3.9726 0.05835-7.6587 2.3045-9.6747 5.8769-4.1464 7.1466-1.0942 17.748 2.9379 23.568 1.9581 2.8796 4.318 6.0502 7.4275 5.9363 2.9379-0.11529 4.0895-1.9024 7.6607-1.9024 3.5686 0 4.6059 1.9024 7.7159 1.8447 3.2251-0.05766 5.2414-2.881 7.1995-5.7634 2.2463-3.2826 3.1659-6.4522 3.2237-6.6262-0.05784-0.05763-6.219-2.4212-6.2761-9.5084-0.05817-5.9342 4.8372-8.7569 5.0676-8.9319-2.7644-4.0886-7.0838-4.5496-8.5813-4.6655"/></g></g></svg>
