<svg xmlns="http://www.w3.org/2000/svg" width="40" height="40" xmlns:v="https://vecta.io/nano"><path fill="#7a8085" d="M28 3.333a4 4 0 0 1 4 4v25a4 4 0 0 1-4 4H12a4 4 0 0 1-4-4v-25a4 4 0 0 1 4-4h16zM25.282 21.4c-.293.01-.343.06-.35.354v.397c-.003.394-.003.387-.38.522-.91.33-1.472.95-1.532 1.942-.054.88.404 1.472 1.124 1.903.445.266.936.424 1.408.633.185.08.36.175.511.303.455.373.37.996-.168 1.232a1.7 1.7 0 0 1-.902.118c-.482-.06-.943-.186-1.374-.411-.252-.131-.326-.098-.414.178l-.205.717c-.088.324-.058.401.252.55.39.188.812.285 1.24.356.332.054.346.067.35.414l.003.472c.003.198.097.313.303.316h.697c.188-.003.286-.108.29-.3l.002-.646c-.01-.219.085-.33.297-.387a2.35 2.35 0 0 0 1.219-.781c.875-1.078.538-2.65-.714-3.343-.394-.22-.812-.38-1.226-.553-.239-.097-.468-.215-.67-.377a.58.58 0 0 1 .145-1.04 1.16 1.16 0 0 1 .41-.084c.543-.03 1.055.07 1.546.306.243.118.323.081.408-.172l.239-.81c.053-.183-.014-.304-.186-.378a3.77 3.77 0 0 0-.976-.29c-.441-.07-.441-.07-.444-.515-.003-.55-.004-.62-.423-.626h-.207c-.09 0-.182-.003-.273 0zM21.5 16.333h-8a1.5 1.5 0 1 0 0 3h8a1.5 1.5 0 1 0 0-3zm5-6h-13a1.5 1.5 0 1 0 0 3h13a1.5 1.5 0 1 0 0-3z" fill-rule="evenodd"/></svg>