<svg xmlns="http://www.w3.org/2000/svg" width="40" height="40" fill-rule="evenodd" xmlns:v="https://vecta.io/nano"><rect width="40" height="40" fill="#f4f6f8" rx="4"/><path fill="#108043" d="M26 7a4 4 0 0 1 4 4v18a4 4 0 0 1-4 4H15a4 4 0 0 1-4-4V11a4 4 0 0 1 4-4h11zm-1.318 14.234c-.232.008-.272.048-.277.279v.313c-.003.31-.003.305-.302.411-.72.26-1.164.748-1.212 1.53-.043.693.32 1.16.89 1.5.352.209.74.334 1.114.498.147.064.285.138.405.239.36.294.293.785-.133.97-.23.099-.47.125-.714.094-.382-.048-.747-.146-1.088-.324-.2-.104-.258-.077-.328.14l-.162.566c-.07.254-.046.315.2.432.309.148.642.225.98.281.264.043.275.053.278.326l.002.372c.003.156.078.246.24.249h.552a.21.21 0 0 0 .23-.236l.002-.51c-.008-.172.066-.26.234-.304a1.86 1.86 0 0 0 .965-.616c.693-.849.427-2.087-.565-2.634-.312-.172-.642-.3-.97-.435-.19-.077-.37-.17-.53-.297-.315-.252-.256-.658.114-.82.104-.045.213-.06.325-.066.43-.024.835.056 1.224.241.192.093.256.064.322-.135l.19-.64c.042-.142-.011-.238-.147-.296-.248-.109-.504-.189-.773-.228-.35-.056-.35-.056-.352-.406-.002-.425-.002-.486-.315-.493h-.183c-.072 0-.144-.003-.216 0zm-2.989-3.992h-6.345c-.652 0-1.181.53-1.181 1.182a1.18 1.18 0 0 0 1.181 1.182h6.345c.653 0 1.182-.53 1.182-1.182s-.53-1.182-1.182-1.182zm3.959-4.727H15.348c-.652 0-1.181.53-1.181 1.182a1.18 1.18 0 0 0 1.181 1.182h10.304c.652 0 1.181-.53 1.181-1.182a1.18 1.18 0 0 0-1.181-1.182z"/></svg>