<svg xmlns="http://www.w3.org/2000/svg" width="40" height="40" fill="none" fill-rule="evenodd" xmlns:v="https://vecta.io/nano"><rect width="40" height="40" fill="#f4f6f8" rx="4"/><g fill-rule="nonzero"><path fill="#2196f3" d="M8.125 10h23.75C33.601 10 35 11.4 35 13.125v13.75C35 28.601 33.6 30 31.875 30H8.125C6.399 30 5 28.6 5 26.875v-13.75C5 11.399 6.4 10 8.125 10z"/><path fill="#455a64" d="M5 13.75h30v5H5z"/><path d="M14.375 23.75h-5c-.345 0-.625-.28-.625-.625s.28-.625.625-.625h5c.345 0 .625.28.625.625s-.28.625-.625.625zm3.75 2.5h-8.75c-.345 0-.625-.28-.625-.625S9.03 25 9.375 25h8.75c.345 0 .625.28.625.625s-.28.625-.625.625z" fill="#fafafa"/></g></svg>