<svg xmlns="http://www.w3.org/2000/svg" width="40" height="40" xmlns:v="https://vecta.io/nano"><path d="M2.667 17.806v9.83c0 2.831 2.094 5.126 4.678 5.126h25.31c2.584 0 4.679-2.295 4.679-5.126v-9.83c0-.493-.365-.892-.814-.892H3.48c-.449 0-.813.4-.813.892zm9.209 7.032h-2.57c-.932 0-1.687-.887-1.687-1.98s.755-1.982 1.687-1.982h2.57c.931 0 1.686.887 1.686 1.981s-.755 1.981-1.686 1.981zm25.458-11.611v-.31c0-2.714-2.095-4.917-4.678-4.917H7.345c-2.584 0-4.678 2.202-4.678 4.918v.309c0 .472.364.855.814.855h33.04c.448 0 .813-.383.813-.855z" fill="#fff" fill-rule="nonzero"/></svg>