<svg xmlns="http://www.w3.org/2000/svg" width="40" height="40" xmlns:v="https://vecta.io/nano"><path d="M31.014 12.267H29.17c.243-.386.404-.82.45-1.28.146-1.467-.623-2.782-1.933-3.365-1.203-.536-2.556-.317-3.53.57l-2.329 2.12c-.453-.498-1.105-.81-1.828-.81s-1.378.313-1.832.813l-2.331-2.122c-.976-.888-2.328-1.106-3.53-.57-1.31.583-2.08 1.898-1.933 3.365.046.459.207.893.45 1.28H8.985c-.912-.001-1.652.741-1.652 1.658v2.49a.83.83 0 0 0 .826.829H31.84a.83.83 0 0 0 .826-.83v-2.49c0-.916-.74-1.659-1.652-1.659zm-13.493-.276v.276h-3.886c-1.027 0-1.835-.961-1.578-2.035.113-.473.453-.876.892-1.08.604-.28 1.272-.19 1.779.27l2.794 2.544v.025zm10.46-1.224c-.062.863-.838 1.5-1.699 1.5h-3.804v-.276-.03l2.75-2.504c.423-.385 1.015-.565 1.563-.401a1.61 1.61 0 0 1 1.19 1.711zM9.536 19.449V31.08c0 .876.696 1.586 1.555 1.586h7.256V19.449H9.536zm12.116 0v13.217h7.256c.86 0 1.555-.71 1.555-1.586V19.449h-8.81z" fill="#7a8085" fill-rule="nonzero"/></svg>