<svg xmlns="http://www.w3.org/2000/svg" width="40" height="40" fill="#fff" fill-rule="nonzero" xmlns:v="https://vecta.io/nano"><path d="M35.98 9.333H4.021c-.748 0-1.354.606-1.354 1.354v19.526c0 .747.606 1.354 1.354 1.354h31.958c.748 0 1.355-.607 1.355-1.354V10.687c0-.748-.607-1.354-1.355-1.354zm-1.183 15.635c0 .56-.455 1.015-1.016 1.015a2.03 2.03 0 0 0-2.03 2.03c0 .561-.454 1.016-1.016 1.016H9.265c-.561 0-1.015-.455-1.015-1.016 0-1.12-.911-2.03-2.03-2.03-.562 0-1.016-.454-1.016-1.015v-9.037c0-.561.454-1.015 1.016-1.015 1.119 0 2.03-.911 2.03-2.03 0-.562.454-1.016 1.015-1.016h21.47c.562 0 1.016.454 1.016 1.016 0 1.119.91 2.03 2.03 2.03.561 0 1.016.454 1.016 1.015v9.037zm-4.948-11.067H10.152c-.368 1.425-1.492 2.549-2.917 2.917v7.263c1.425.368 2.549 1.492 2.917 2.916h19.697c.368-1.424 1.492-2.548 2.916-2.916v-7.263c-1.424-.368-2.548-1.492-2.916-2.917zM12.45 21.465h-1.116c-.562 0-1.016-.455-1.016-1.016s.454-1.015 1.016-1.015h1.116c.56 0 1.016.455 1.016 1.015s-.455 1.016-1.016 1.016zM20 24.244a3.8 3.8 0 0 1-3.794-3.795A3.8 3.8 0 0 1 20 16.655a3.8 3.8 0 0 1 3.795 3.794A3.8 3.8 0 0 1 20 24.244zm8.667-2.779H27.55c-.56 0-1.015-.455-1.015-1.016s.455-1.015 1.015-1.015h1.117c.561 0 1.016.455 1.016 1.015s-.455 1.016-1.016 1.016z"/><circle cx="20" cy="20.449" r="1.763"/></svg>