<svg xmlns="http://www.w3.org/2000/svg" width="40" height="40" fill="none" fill-rule="evenodd" xmlns:v="https://vecta.io/nano"><rect width="40" height="40" fill="#f4f6f8" rx="4"/><g fill-rule="nonzero"><path fill="#408d69" d="M21.89 14.782l7.767 13.613h1.36c.25 0 .454-.203.454-.454v-13.16h-9.58z"/><g fill="#53a143"><path d="M5 15.235v12.706c0 .25.204.454.455.454h24.25V14.782H5.456c-.251 0-.455.203-.455.453z"/><path d="M23.655 13.017l7.767 13.613h1.36c.25 0 .453-.203.453-.454v-13.16h-9.58z"/></g><g fill="#60ba4d"><path d="M6.765 13.47v12.706c0 .251.204.454.455.454h24.25V13.017H7.22c-.251 0-.455.203-.455.454z"/><path d="M33.235 11l-3.53 6.807 3.53 6.806h1.324c.243 0 .441-.203.441-.453V11.454c0-.25-.198-.454-.441-.454h-1.324z"/></g><path fill="#85cf75" d="M8.53 11.454V24.16c0 .25.203.453.455.453h24.25v-3.63l-3.642-3.176 3.642-3.177V11H8.985c-.252 0-.456.203-.456.454z"/><path fill="#ffeac3" d="M10.546 21.015v-6.417c0-1.012.809-1.833 1.806-1.833H31.43c.997 0 1.805.82 1.805 1.833v6.417a1.82 1.82 0 0 1-1.805 1.834H12.352c-.997 0-1.806-.821-1.806-1.834z"/><path fill="#53a143" d="M17.605 16.951v1.711c0 2.312 1.862 4.187 4.16 4.187s4.16-1.875 4.16-4.187v-1.71c0-2.313-1.863-4.187-4.16-4.187s-4.16 1.874-4.16 4.186z"/><path fill="#60ba4d" d="M21.639 14.782v6.302c1.25 0 2.269-1.037 2.269-2.31v-1.683c0-1.274-1.018-2.31-2.27-2.31z"/><g fill="#85cf75"><path d="M22.405 18.774v-1.682c0-1.273-.23-2.31-.514-2.31-1.283 0-2.327 1.037-2.327 2.31v1.682c0 1.274 1.044 2.31 2.327 2.31.283 0 .514-1.036.514-2.31z"/><ellipse cx="14.124" cy="17.933" rx="1.813" ry="1.801"/><ellipse cx="29.657" cy="17.933" rx="1.813" ry="1.801"/></g></g></svg>