<svg xmlns="http://www.w3.org/2000/svg" width="40" height="40" fill-rule="evenodd" xmlns:v="https://vecta.io/nano"><path fill="#fff" d="M29.674 12.943c.368-2.33-.002-3.915-1.27-5.351-1.395-1.582-3.916-2.259-7.142-2.259h-9.363c-.66 0-1.22.477-1.323 1.125L6.677 31.041a.8.8 0 0 0 .794.924h5.78l-.399 2.516a.7.7 0 0 0 .695.808h4.872a1.17 1.17 0 0 0 1.157-.984l.048-.246.918-5.788.06-.32a1.17 1.17 0 0 1 1.157-.983h.729c4.72 0 8.415-1.907 9.495-7.421.451-2.305.218-4.228-.975-5.58-.361-.41-.81-.748-1.334-1.023l-7.915 11.452"/><path fill="#d4d7d9" d="M28.409 7.585c-1.396-1.577-3.917-2.252-7.144-2.252H11.9c-.66 0-1.22.476-1.323 1.121l-3.9 24.51a.8.8 0 0 0 .794.92h5.782l1.452-9.127-.045.286c.103-.645.66-1.121 1.319-1.121h2.748c5.396 0 9.622-2.173 10.857-8.458a16 16 0 0 0 .095-.543c.368-2.324-.002-3.904-1.27-5.336z"/></svg>