<svg xmlns="http://www.w3.org/2000/svg" xmlns:xlink="http://www.w3.org/1999/xlink" width="40" height="40" xmlns:v="https://vecta.io/nano"><defs><path id="A" d="M0 0h24v7.2H0z"/><path id="B" d="M0 0h20v8.8H0z"/></defs><g fill="none" fill-rule="evenodd"><rect width="40" height="40" fill="#f4f6f8" rx="4"/><g transform="translate(4 28)"><mask id="C" fill="#fff"><use xlink:href="#A"/></mask><path fill="#238ec2" d="M22.094 2.427c-.137.93-.826.93-1.492.93h-.38l.266-1.736c.016-.105.104-.183.207-.183h.174c.454 0 .882 0 1.103.267.132.16.172.396.122.722zM21.804 0h-2.513c-.172 0-.318.129-.345.304L17.93 6.95c-.02.131.078.25.207.25h1.29c.12 0 .222-.09.24-.213l.289-1.884c.027-.175.173-.304.345-.304h.795c1.656 0 2.611-.826 2.86-2.464.113-.716.005-1.279-.32-1.673C23.28.23 22.646 0 21.804 0z" mask="url(#C)"/><path fill="#253667" d="M4.168 2.427c-.138.93-.827.93-1.493.93h-.38l.266-1.736c.016-.105.104-.183.207-.183h.174c.454 0 .882 0 1.103.267.132.16.173.396.123.722zM3.878 0H1.363c-.172 0-.318.129-.345.304L.003 6.95c-.02.131.078.25.207.25h1.2c.172 0 .318-.129.345-.304l.274-1.793c.027-.175.173-.304.345-.304h.795c1.656 0 2.611-.826 2.861-2.464.112-.716.005-1.279-.32-1.673C5.351.23 4.717 0 3.876 0z" mask="url(#C)"/></g><path fill="#253667" d="M13.954 32.815c-.126.676-.718 1.13-1.474 1.13-.378 0-.681-.11-.876-.32s-.266-.502-.204-.83c.117-.671.719-1.14 1.462-1.14.37 0 .672.112.87.323s.279.51.222.837zm1.819-2.304h-1.305c-.112 0-.208.074-.225.174l-.057.331-.092-.12c-.282-.372-.912-.496-1.541-.496-1.442 0-2.674.99-2.914 2.38-.125.693.052 1.356.486 1.818.398.425.967.602 1.644.602 1.162 0 1.807-.677 1.807-.677l-.058.329c-.022.125.084.238.224.238h1.175c.187 0 .345-.123.374-.29l.706-4.05c.022-.126-.085-.239-.224-.239z"/><path fill="#238ec2" d="M31.554 32.815c-.126.676-.718 1.13-1.473 1.13-.38 0-.682-.11-.877-.32s-.266-.502-.204-.83c.117-.671.719-1.14 1.462-1.14.37 0 .672.112.87.323s.279.51.222.837zm1.819-2.304h-1.305c-.112 0-.207.074-.225.174l-.057.331-.092-.12c-.282-.372-.912-.496-1.541-.496-1.442 0-2.674.99-2.914 2.38-.125.693.052 1.356.486 1.818.398.425.967.602 1.644.602 1.162 0 1.807-.677 1.807-.677l-.058.329c-.022.125.084.238.224.238h1.176c.186 0 .344-.123.374-.29l.705-4.05c.022-.126-.085-.239-.224-.239z"/><g transform="translate(16 28)"><mask id="D" fill="#fff"><use xlink:href="#B"/></mask><path fill="#253667" d="M5.574 2.376H4.372c-.115 0-.223.059-.287.157L2.426 5.044l-.703-2.413a.35.35 0 0 0-.332-.255H.208c-.142 0-.243.145-.197.283l1.324 3.996L.09 8.462c-.098.142 0 .338.17.338h1.2c.114 0 .22-.057.285-.154l4-5.934c.095-.142-.004-.336-.172-.336" mask="url(#D)"/><path fill="#238ec2" d="M18.432.18l-1.025 6.708c-.02.13.077.247.205.247h1.032a.35.35 0 0 0 .342-.3L19.997.247c.02-.13-.077-.248-.205-.248h-1.154a.21.21 0 0 0-.206.18" mask="url(#D)"/></g><path fill="#238ec2" d="M27.86 9.488c.254-1.68-.001-2.824-.875-3.86C26.023 4.489 24.285 4 22.061 4h-6.454c-.455 0-.842.344-.912.81l-2.688 17.728c-.053.35.207.666.547.666h3.985l-.275 1.814c-.046.306.18.583.479.583H20.1c.398 0 .736-.3.798-.71l.033-.177.633-4.173.04-.23a.82.82 0 0 1 .799-.71h.502c3.254 0 5.802-1.375 6.546-5.351.311-1.662.15-3.049-.672-4.024-.249-.295-.558-.538-.92-.737"/><path fill="#20274f" d="M27.907 9.487c.254-1.68-.002-2.823-.878-3.859C26.064 4.488 24.32 4 22.09 4h-6.474c-.456 0-.844.344-.915.81l-2.694 17.725a.57.57 0 0 0 .549.666h3.996l1.004-6.6-.031.206c.07-.466.456-.81.911-.81h1.9c3.73 0 6.651-1.571 7.504-6.116l.067-.393"/><path fill="#253667" d="M18.634 9.51a.84.84 0 0 1 .45-.628c.107-.053.226-.082.35-.082h5.075c.601 0 1.162.04 1.674.126l.427.085.403.107.192.062a4.39 4.39 0 0 1 .702.307c.254-1.68-.002-2.823-.878-3.859C26.064 4.488 24.32 4 22.09 4h-6.474c-.456 0-.844.344-.915.81l-2.694 17.725a.57.57 0 0 0 .549.666h3.996l2.082-13.69"/></g></svg>