<svg xmlns="http://www.w3.org/2000/svg" width="40" height="40" xmlns:v="https://vecta.io/nano"><path d="M9.382 15.089v8.101h5.286c1.167 0 2.234-.462 3.004-1.214.74-.723 1.202-1.722 1.202-2.836s-.463-2.114-1.202-2.837c-.77-.751-1.837-1.214-3.004-1.214H9.382zM4 34.703V15.089h5.372V10.07h5.296a9.29 9.29 0 0 1 6.496 2.646c1.682 1.642 2.733 3.907 2.733 6.424s-1.05 4.78-2.733 6.423a9.29 9.29 0 0 1-6.496 2.646H9.382v6.495H4zm24.455-20.664h6.99v-6.99h-6.99v6.99zm1.716-1.716h3.558V8.765h-3.558v3.558zm-3.432 3.432h10.422V5.333H26.74v10.422z" fill="#7a8085" fill-rule="evenodd"/></svg>