<svg xmlns="http://www.w3.org/2000/svg" width="40" height="40" fill-rule="evenodd" xmlns:v="https://vecta.io/nano"><rect width="40" height="40" fill="#f4f6f8" rx="4"/><path d="M10.544 16.304V23.2h4.464a3.61 3.61 0 0 0 2.536-1.034c.624-.615 1.015-1.466 1.015-2.414a3.37 3.37 0 0 0-1.015-2.414 3.61 3.61 0 0 0-2.536-1.034h-4.464zM6 33V16.304h4.536v-4.272h4.472c2.12 0 4.07.858 5.485 2.252S22.8 17.61 22.8 19.752s-.887 4.07-2.307 5.467-3.364 2.252-5.485 2.252h-4.464V33H6zm20.649-17.59h5.902V9.46H26.65v5.95zm1.449-1.46h3.004v-3.03h-3.004v3.03zM25.2 16.87H34V8h-8.8v8.871z" fill="#21c25e"/></svg>