<svg xmlns="http://www.w3.org/2000/svg" width="40" height="40" fill="#7a8085" fill-rule="evenodd" xmlns:v="https://vecta.io/nano"><path d="M28.209 27.773a4.28 4.28 0 0 1-3.047-1.262l-4.4-4.4a.84.84 0 0 0-1.156 0l-4.416 4.416a4.28 4.28 0 0 1-3.047 1.262h-.867l5.573 5.572a4.46 4.46 0 0 0 6.302 0l5.588-5.588h-.53M12.143 12.21c1.151 0 2.234.449 3.047 1.262l4.416 4.416c.318.319.837.32 1.156 0l4.4-4.4c.814-.813 1.896-1.261 3.047-1.261h.53l-5.588-5.589a4.46 4.46 0 0 0-6.302 0l-5.573 5.572h.867m21.218 4.639l-3.377-3.377a.64.64 0 0 1-.24.048h-1.535c-.794 0-1.571.322-2.132.883l-4.4 4.4a2.1 2.1 0 0 1-1.493.618c-.54 0-1.081-.206-1.493-.618l-4.416-4.416c-.56-.561-1.338-.883-2.132-.883h-1.888c-.08 0-.155-.019-.226-.046l-3.39 3.39c-1.741 1.74-1.741 4.562 0 6.303l3.39 3.39a.63.63 0 0 1 .226-.046h1.888a3.04 3.04 0 0 0 2.132-.883l4.416-4.416c.798-.797 2.19-.798 2.987 0l4.4 4.4a3.03 3.03 0 0 0 2.131.883h1.535a.66.66 0 0 1 .24.048l3.377-3.376a4.46 4.46 0 0 0 0-6.302"/></svg>