<svg xmlns="http://www.w3.org/2000/svg" width="40" height="40" fill-rule="evenodd" xmlns:v="https://vecta.io/nano"><rect width="40" height="40" fill="#f4f6f8" rx="4"/><path fill="#939598" fill-rule="nonzero" d="M18.893 15.893l2.116.003c1.422.003 2.575 1.145 2.598 2.562v1.568c0 1.426-1.143 2.584-2.564 2.607H18.01a.22.22 0 0 1-.22-.22.22.22 0 0 1 .205-.22h3.006c1.184 0 2.146-.951 2.165-2.131V18.5c0-1.181-.946-2.142-2.122-2.163h-.036l-2.115-.003c-1.185 0-2.147.95-2.167 2.13v7.201a.22.22 0 0 1-.22.221.22.22 0 0 1-.22-.205l-.001-.016v-7.164a2.61 2.61 0 0 1 2.608-2.608zm6.003 0a1.2 1.2 0 0 1 1.2 1.17v5.383a.22.22 0 0 1-.22.22.22.22 0 0 1-.22-.205v-5.368a.76.76 0 0 0-.737-.76h-.941a.22.22 0 0 1-.22-.22.22.22 0 0 1 .205-.22h.933z"/><path fill="#32bcad" d="M25.68 15.284l-.417-.417c-.103-.103-.103-.27 0-.374l.416-.415c.103-.104.27-.104.374 0l.416.415c.104.104.104.271 0 .374l-.416.417c-.103.103-.27.103-.374 0"/><path fill="#939598" fill-rule="nonzero" d="M33.058 19.577l.02.02 2.121 2.12a1.54 1.54 0 0 0 1.054.452h.778a.22.22 0 0 1 .22.221.22.22 0 0 1-.205.22l-.015.001h-.74c-.512 0-1.004-.198-1.373-.552l-.03-.03-2.122-2.12c-.184-.185-.479-.19-.67-.017l-.016.017-2.13 2.128c-.361.363-.85.57-1.36.582h-.954a.22.22 0 0 1-.221-.22.22.22 0 0 1 .205-.22l.015-.001h.91c.397 0 .779-.153 1.065-.426l.028-.027 2.129-2.128c.348-.35.905-.362 1.27-.039l.02.019zm-4.511-3.69a1.99 1.99 0 0 1 1.373.552l.03.03 2.13 2.129c.184.184.479.19.67.016l.016-.016 2.121-2.121c.362-.362.85-.57 1.362-.581h.782a.22.22 0 0 1 .22.22.22.22 0 0 1-.205.22h-.755a1.54 1.54 0 0 0-1.064.426l-.028.027-2.12 2.12c-.356.356-.928.363-1.291.02l-.02-.02-2.13-2.128c-.28-.28-.657-.442-1.053-.452h-.948c-.122 0-.221-.1-.221-.22a.22.22 0 0 1 .205-.221h.925z"/><path d="M11.08 23.758c-.457 0-.887-.178-1.21-.5L8.124 21.51c-.123-.123-.336-.122-.459 0l-1.753 1.754c-.323.323-.752.5-1.209.5h-.344l2.212 2.212c.69.691 1.81.691 2.5 0l2.219-2.218h-.21m-6.377-6.176a1.7 1.7 0 0 1 1.21.5l1.752 1.753c.126.126.332.127.459 0l1.746-1.746a1.7 1.7 0 0 1 1.21-.501h.21L9.072 15.37a1.77 1.77 0 0 0-2.501 0l-2.212 2.212h.344m8.421 1.84l-1.34-1.34c-.03.012-.061.02-.095.02h-.61c-.315 0-.623.127-.846.35l-1.746 1.746a.83.83 0 0 1-.592.245c-.215 0-.43-.081-.593-.245l-1.753-1.753c-.222-.222-.53-.35-.846-.35h-.75c-.031 0-.061-.008-.09-.018l-1.344 1.345a1.77 1.77 0 0 0 0 2.502l1.346 1.345c.028-.01.058-.018.09-.018h.749a1.21 1.21 0 0 0 .846-.35l1.753-1.753a.86.86 0 0 1 1.185 0l1.746 1.746c.223.223.531.35.847.35h.609c.034 0 .066.008.095.02l1.34-1.34a1.77 1.77 0 0 0 0-2.502" fill="#32bcad"/></svg>