<svg xmlns="http://www.w3.org/2000/svg" width="40" height="40" fill-rule="evenodd" xmlns:v="https://vecta.io/nano"><rect width="40" height="40" fill="#f4f6f8" rx="4"/><path d="M20 6c7.732 0 14 6.268 14 14s-6.268 14-14 14S6 27.732 6 20 12.268 6 20 6zm-2.364 14l-6.303 4.667 6.303 4.666v-2.546h-.134c4.698-.022 7.775-.718 9.232-2.089s2.09-2.897 1.9-4.58c-.81 2.474-4.476 3.354-10.997 2.639V20zm4.728-8.91v2.547h.134c-4.698.022-7.775.719-9.232 2.089s-2.09 2.897-1.9 4.58c.81-2.474 4.476-3.353 10.997-2.639v2.757l6.304-4.666-6.303-4.667z" fill="#084e8a"/></svg>